#!OML:ASF H:\Terrain\Patient Classification 1\Terrain2\Thursday\justin.ASF
:FULLY-SPECIFIED
:DEGREES
4206
root 10.1119 21.19 -9.02344 177.213 -3.34019 -534.141
lowerback 10.8765 1.93038 7.30995
upperback 4.21297 2.74026 4.00969
thorax -1.50154 1.10714 -0.243198
lowerneck -10.6414 -0.0911268 -11.1664
upperneck 38.2329 -4.16096 5.3522
head 15.5268 -4.17731 3.21732
rclavicle 1.23246e-014 3.65764e-014
rhumerus -31.5983 -8.05348 -76.8227
rradius 38.084
rwrist -11.8246
rhand -19.3951 12.3738
rfingers 7.12502
rthumb 6.92378 -17.493
lclavicle 1.23246e-014 3.65764e-014
lhumerus -38.1125 3.94004 83.5248
lradius 46.4583
lwrist 10.2538
lhand -21.8987 22.3895
lfingers 7.12502
lthumb 4.50654 52.3216
rfemur 10.6523 -6.5963 28.8645
rtibia 3.18055e-015
rfoot -1.40754 -0.850568
rtoes 13.4884
lfemur -34.6812 16.6698 -6.56892
ltibia 111.251
lfoot -17.2549 -13.1806
ltoes -6.92873
4207
root 10.1091 21.186 -9.04698 177.523 -3.19588 -534.019
lowerback 10.8408 1.98883 7.43914
upperback 4.13768 2.83862 4.01645
thorax -1.54838 1.15651 -0.318628
lowerneck -10.4751 -0.059807 -11.1077
upperneck 38.1142 -4.10825 5.30301
head 15.418 -4.14631 3.19475
rclavicle 8.11041e-014 6.2816e-014
rhumerus -31.1465 -8.64291 -76.4298
rradius 37.4275
rwrist -9.77031
rhand -17.4844 11.2182
rfingers 7.12502
rthumb 8.76788 -18.5796
lclavicle 8.11041e-014 6.2816e-014
lhumerus -37.9747 4.18471 83.1505
lradius 46.5978
lwrist 9.64374
lhand -21.7514 23.3193
lfingers 7.12502
lthumb 4.6488 53.2483
rfemur 8.98495 -6.64763 29.0487
rtibia 2.5575
rfoot -3.04627 -0.684478
rtoes 11.9241
lfemur -35.2078 16.4328 -6.90157
ltibia 109.319
lfoot -16.706 -14.3219
ltoes -7.53049
4208
root 10.1039 21.1612 -9.06501 177.764 -3.03646 -534.055
lowerback 10.8906 2.05745 7.42455
upperback 4.106 2.94371 3.93996
thorax -1.60012 1.21121 -0.40423
lowerneck -10.5102 -0.0410611 -10.9855
upperneck 38.1275 -4.1225 5.35037
head 15.4315 -4.12601 3.19193
rclavicle 3.67752e-014 5.96354e-014
rhumerus -30.7178 -9.04785 -76.2466
rradius 36.8272
rwrist -8.66018
rhand -16.5704 11.0713
rfingers 7.12502
rthumb 9.64984 -18.6876
lclavicle 3.67752e-014 5.96354e-014
lhumerus -37.6129 4.23366 82.8365
lradius 46.3945
lwrist 9.48873
lhand -22.4428 23.1138
lfingers 7.12502
lthumb 3.98114 53.0563
rfemur 7.59937 -6.68271 29.0235
rtibia 4.74428
rfoot -4.51865 -0.53902
rtoes 13.2998
lfemur -35.7069 16.1516 -7.39096
ltibia 107.357
lfoot -15.6337 -15.4158
ltoes -5.67773
4209
root 10.0912 21.0779 -9.07698 177.819 -2.81433 -534.065
lowerback 10.983 2.06883 7.39286
upperback 4.1734 2.94854 3.94606
thorax -1.58138 1.21004 -0.382598
lowerneck -10.6603 0.0218787 -11.0058
upperneck 38.2673 -4.01146 5.29411
head 15.5236 -4.09772 3.18852
rclavicle -1.59028e-014 -2.78299e-014
rhumerus -30.1657 -9.07022 -76.177
rradius 36.1356
rwrist -8.42864
rhand -16.6323 11.514
rfingers 7.12502
rthumb 9.5901 -18.2477
lclavicle -1.59028e-014 -2.78299e-014
lhumerus -37.2995 4.79941 82.4274
lradius 46.0913
lwrist 8.91189
lhand -22.0708 21.5737
lfingers 7.12502
lthumb 4.34039 51.5092
rfemur 7.1043 -6.69228 29.1104
rtibia 6.56812
rfoot -6.3908 -0.764077
rtoes 10.17
lfemur -36.2643 15.9198 -7.84284
ltibia 105.616
lfoot -14.8333 -16.0929
ltoes -6.04064
4210
root 10.0843 21.0674 -9.10481 177.919 -2.57373 -533.915
lowerback 11.0747 2.05533 7.47055
upperback 4.17488 2.93612 4.02278
thorax -1.6293 1.19622 -0.347024
lowerneck -10.6644 0.107135 -10.9791
upperneck 38.2513 -3.80418 5.09423
head 15.4876 -4.03142 3.12958
rclavicle 1.05356e-014 -4.85035e-014
rhumerus -29.5642 -9.27878 -75.9693
rradius 35.2461
rwrist -7.64006
rhand -16.5328 12.4782
rfingers 7.12502
rthumb 9.68614 -17.2791
lclavicle 1.05356e-014 -4.85035e-014
lhumerus -37.3191 5.51042 81.9681
lradius 46.1363
lwrist 8.10036
lhand -21.5547 21.2026
lfingers 7.12502
lthumb 4.83872 51.1273
rfemur 6.55129 -6.67436 29.2956
rtibia 7.49322
rfoot -7.31438 -0.648509
rtoes 11.0285
lfemur -36.4257 15.8515 -8.14194
ltibia 103.338
lfoot -14.9323 -16.1852
ltoes -10.7683
